<?xml version="1.0" encoding="UTF-8"?>
<svg id="Layer_1" xmlns="http://www.w3.org/2000/svg" version="1.1" viewBox="0 0 473 284.3">
  <!-- Generator: Adobe Illustrator 29.0.0, SVG Export Plug-In . SVG Version: 2.1.0 Build 186)  -->
  <defs>
    <style>
      .st0, .st1 {
        isolation: isolate;
      }

      .st2 {
        fill: none;
        stroke: #000;
        stroke-miterlimit: 10;
      }

      .st1 {
        fill: #1d1d1b;
        font-family: JosefinSans-Regular, 'Josefin Sans';
        font-size: 76.4px;
      }
    </style>
  </defs>
  <path class="st2" d="M130.4,82.2c4.6-1.5,12.1,1.5,14.9,4.6l2.7,3.6c.9-4.7,4.6-8.2,6.7-12.5-1.2-1.9-2.6-3.8-3.9-5.7-.5-.6-1.3-1.1-1.8-1.7-2.4-3.4,1.5-8.2,1.2-11.9-1.1-1.3-8-3-8-4.3,0-1.8,6-5.4,7.5-6.7,4.1-3.7,4.4-8.3,6.7-12.8l1-.4c3.4.3,6.8,1.2,10.2,1.6,6.3.6,12.7,1,19.1.9,7.5-.2,12.8-.5,20.6.5,6.1.8,12,3,18,4.2,18.5,3.7,39.6,7.6,58.3,9.9,1.3.2,3.2-.2,4.2,0,.4,0,.2,1.4,1.3.8.1,0-1.2-1,.2-.8.8.8,1.5,1.1,2.6,1.5,4.6,1.3,11.9,2.3,16.9,3.2,6.6,1.2,14.5,2.6,21.3,3.1,3.9.3,9.2-.4,12.9.5.5,0,.2.8.5.8,1.5,0,1.1-1.9,1.6-2.6.3-.4,1.3-.3,1.7-.6,1.9-1.6,3.8-4.1,5.3-5.7,1.1-1.1,1.2-2.7,3.3-2.8,4.2,0,8.9,1.3,13,1.6,4.7.4,9.9.3,14.6.5-.3-.5-2.4-.6-3.2-.7-1,0-2,0-3.1,0-.3-.9.7-1.1,1.6-1.1,5.9,0,12.9,1.9,18.9,2.6,8.2,1,24.7,3.8,32.1,3.6,9.9-.3,18.5,0,28.2,2.6,1.3.4,3.8.9,4.2,2.1-2.3.3-4.5-1.1-6.8-1.6-3.6-.8-8.4-1.6-12.2-1.9-.4,0-1.7-.2-.9.4l4.1.8c.4,1.2-1.2.8-2.1.8-5.5-.3-15.9-2.9-20.6-2.5-7.3.8-13.9-1.7-21.3-2.7-5.2-.7-12.8-1.6-18-1.6s-5.9.7-8.7.7c-5.5-.2-11.6-1.6-17.3-1.6s-4.3,3.5-6,5.5c-1.3,1.6-4.3,2.8-5.3,3.7-.4.4.2,1.1-1,1.6-3.3,1.3-8.2-.2-11.8-.4-7-.5-14.3-.7-21.3-1.8-10.6-1.7-22.1-5.4-32.8-6.5-2.7-.3-3-.5-5.9-1.1-15.5-2.9-31.2-5.2-46.8-7.9-5.9-1.1-13.2-4.1-18.9-4.7s-11.3.6-16.8.8c-6.9.2-12.5-.9-19.2-1.6-4.7-.5-9.5-.5-14.1-1.6.6,1.6-1.4,3.6-2.2,5.2-.5,1-.6,2.6-1.2,3.5-1.3,1.8-4.9,4.4-6.6,6.2-.4.5-1.5,1.6-1.5,2,0,.9,5.6,2.8,6.2,4.1l-2.3,10.5,6.5,8.8c-.9,5.3-5.8,9.3-7,14.5l2,.6M196.2,165.6c.6,1.8,1.8,3.8,1.9,5.7-2.1-1.4-1.3-3.6-2.5-5.2-.4-.6-1.4-.7-1.5-1.2-.3-.7.3-1.5.2-2,0-.6-1.2-1.2-1.2-2s1.2-1.2.5-2.3c-4.5,4.2.9,7.5,2.6,11.5,1.5,3.4,2.1,7.7,3.5,11.3,5.6,15,13.5,29.4,17,44.7.3,1.5,3.8,6.8,4.8,9,6,13.4,8.8,25.6,12.6,39.5.9,3.2.8,6.8,3.1,9.6-2.4.4-3.9-2.6-4.6-4.3-1.2-3-2.6-7.7-3.6-10.9-3.4-11.1-4-21.5-9.1-32.7-1.8-4-6.9-10.9-7.9-14.5-1.2-4-1.2-8.1-2.7-12.4-.9-2.5-2.3-4.4-3.3-6.6-4.5-10.5-9.1-21-13.5-31.6"/>
  <g class="st0">
    <g class="st0">
      <text class="st1" transform="translate(11.6 79.6)"><tspan x="0" y="0">The</tspan></text>
    </g>
    <g class="st0">
      <text class="st1" transform="translate(11.6 157.6)"><tspan x="0" y="0">Pinnacle</tspan></text>
    </g>
  </g>
</svg>